<?xml version="1.0" encoding="utf-8" standalone="no"?>
<!DOCTYPE svg PUBLIC "-//W3C//DTD SVG 1.1//EN"
  "http://www.w3.org/Graphics/SVG/1.1/DTD/svg11.dtd">
<svg xmlns:xlink="http://www.w3.org/1999/xlink" width="854.745625pt" height="564.011506pt" viewBox="0 0 854.745625 564.011506" xmlns="http://www.w3.org/2000/svg" version="1.1">
 <metadata>
  <rdf:RDF xmlns:dc="http://purl.org/dc/elements/1.1/" xmlns:cc="http://creativecommons.org/ns#" xmlns:rdf="http://www.w3.org/1999/02/22-rdf-syntax-ns#">
   <cc:Work>
    <dc:type rdf:resource="http://purl.org/dc/dcmitype/StillImage"/>
    <dc:date>2026-01-14T11:13:11.196627</dc:date>
    <dc:format>image/svg+xml</dc:format>
    <dc:creator>
     <cc:Agent>
      <dc:title>Matplotlib v3.10.8, https://matplotlib.org/</dc:title>
     </cc:Agent>
    </dc:creator>
   </cc:Work>
  </rdf:RDF>
 </metadata>
 <defs>
  <style type="text/css">*{stroke-linejoin: round; stroke-linecap: butt}</style>
 </defs>
 <g id="figure_1">
  <g id="patch_1">
   <path d="M 0 564.011506 
L 854.745625 564.011506 
L 854.745625 0 
L 0 0 
z
" style="fill: #ffffff"/>
  </g>
  <g id="axes_1">
   <g id="patch_2">
    <path d="M 60.552813 459.475256 
L 794.192812 459.475256 
L 794.192812 38.597656 
L 60.552813 38.597656 
z
" style="fill: #ffffff"/>
   </g>
   <g id="FillBetweenPolyCollection_1">
    <defs>
     <path id="m88b03e69d5" d="M 427.372813 -314.975049 
L 427.372813 -314.975049 
L 427.372813 -314.975049 
L 427.372813 -314.975049 
L 427.372813 -314.975049 
L 427.372813 -314.975049 
L 427.372813 -314.975049 
L 427.372813 -314.975049 
L 427.372813 -314.975049 
L 427.372813 -314.975049 
L 427.372813 -314.975049 
L 427.372813 -314.975049 
L 427.372813 -314.975049 
L 427.372813 -314.975049 
z
" style="stroke: #1f77b4; stroke-opacity: 0.08"/>
    </defs>
    <g clip-path="url(#p57184723f7)">
     <use xlink:href="#m88b03e69d5" x="0" y="564.011506" style="fill: #1f77b4; fill-opacity: 0.08; stroke: #1f77b4; stroke-opacity: 0.08"/>
    </g>
   </g>
   <g id="matplotlib.axis_1">
    <g id="xtick_1">
     <g id="line2d_1">
      <path d="M 160.594631 459.475256 
L 160.594631 38.597656 
" clip-path="url(#p57184723f7)" style="fill: none; stroke-dasharray: 2.96,1.28; stroke-dashoffset: 0; stroke: #b0b0b0; stroke-opacity: 0.4; stroke-width: 0.8"/>
     </g>
     <g id="line2d_2">
      <defs>
       <path id="mf7e1cadc18" d="M 0 0 
L 0 3.5 
" style="stroke: #000000; stroke-width: 0.8"/>
      </defs>
      <g>
       <use xlink:href="#mf7e1cadc18" x="160.594631" y="459.475256" style="stroke: #000000; stroke-width: 0.8"/>
      </g>
     </g>
     <g id="text_1">
      <!-- −0.04 -->
      <g transform="translate(145.271974 474.073694) scale(0.1 -0.1)">
       <defs>
        <path id="DejaVuSans-2212" d="M 678 2272 
L 4684 2272 
L 4684 1741 
L 678 1741 
L 678 2272 
z
" transform="scale(0.015625)"/>
        <path id="DejaVuSans-30" d="M 2034 4250 
Q 1547 4250 1301 3770 
Q 1056 3291 1056 2328 
Q 1056 1369 1301 889 
Q 1547 409 2034 409 
Q 2525 409 2770 889 
Q 3016 1369 3016 2328 
Q 3016 3291 2770 3770 
Q 2525 4250 2034 4250 
z
M 2034 4750 
Q 2819 4750 3233 4129 
Q 3647 3509 3647 2328 
Q 3647 1150 3233 529 
Q 2819 -91 2034 -91 
Q 1250 -91 836 529 
Q 422 1150 422 2328 
Q 422 3509 836 4129 
Q 1250 4750 2034 4750 
z
" transform="scale(0.015625)"/>
        <path id="DejaVuSans-2e" d="M 684 794 
L 1344 794 
L 1344 0 
L 684 0 
L 684 794 
z
" transform="scale(0.015625)"/>
        <path id="DejaVuSans-34" d="M 2419 4116 
L 825 1625 
L 2419 1625 
L 2419 4116 
z
M 2253 4666 
L 3047 4666 
L 3047 1625 
L 3713 1625 
L 3713 1100 
L 3047 1100 
L 3047 0 
L 2419 0 
L 2419 1100 
L 313 1100 
L 313 1709 
L 2253 4666 
z
" transform="scale(0.015625)"/>
       </defs>
       <use xlink:href="#DejaVuSans-2212"/>
       <use xlink:href="#DejaVuSans-30" transform="translate(83.789062 0)"/>
       <use xlink:href="#DejaVuSans-2e" transform="translate(147.412109 0)"/>
       <use xlink:href="#DejaVuSans-30" transform="translate(179.199219 0)"/>
       <use xlink:href="#DejaVuSans-34" transform="translate(242.822266 0)"/>
      </g>
     </g>
    </g>
    <g id="xtick_2">
     <g id="line2d_3">
      <path d="M 293.983722 459.475256 
L 293.983722 38.597656 
" clip-path="url(#p57184723f7)" style="fill: none; stroke-dasharray: 2.96,1.28; stroke-dashoffset: 0; stroke: #b0b0b0; stroke-opacity: 0.4; stroke-width: 0.8"/>
     </g>
     <g id="line2d_4">
      <g>
       <use xlink:href="#mf7e1cadc18" x="293.983722" y="459.475256" style="stroke: #000000; stroke-width: 0.8"/>
      </g>
     </g>
     <g id="text_2">
      <!-- −0.02 -->
      <g transform="translate(278.661065 474.073694) scale(0.1 -0.1)">
       <defs>
        <path id="DejaVuSans-32" d="M 1228 531 
L 3431 531 
L 3431 0 
L 469 0 
L 469 531 
Q 828 903 1448 1529 
Q 2069 2156 2228 2338 
Q 2531 2678 2651 2914 
Q 2772 3150 2772 3378 
Q 2772 3750 2511 3984 
Q 2250 4219 1831 4219 
Q 1534 4219 1204 4116 
Q 875 4013 500 3803 
L 500 4441 
Q 881 4594 1212 4672 
Q 1544 4750 1819 4750 
Q 2544 4750 2975 4387 
Q 3406 4025 3406 3419 
Q 3406 3131 3298 2873 
Q 3191 2616 2906 2266 
Q 2828 2175 2409 1742 
Q 1991 1309 1228 531 
z
" transform="scale(0.015625)"/>
       </defs>
       <use xlink:href="#DejaVuSans-2212"/>
       <use xlink:href="#DejaVuSans-30" transform="translate(83.789062 0)"/>
       <use xlink:href="#DejaVuSans-2e" transform="translate(147.412109 0)"/>
       <use xlink:href="#DejaVuSans-30" transform="translate(179.199219 0)"/>
       <use xlink:href="#DejaVuSans-32" transform="translate(242.822266 0)"/>
      </g>
     </g>
    </g>
    <g id="xtick_3">
     <g id="line2d_5">
      <path d="M 427.372813 459.475256 
L 427.372813 38.597656 
" clip-path="url(#p57184723f7)" style="fill: none; stroke-dasharray: 2.96,1.28; stroke-dashoffset: 0; stroke: #b0b0b0; stroke-opacity: 0.4; stroke-width: 0.8"/>
     </g>
     <g id="line2d_6">
      <g>
       <use xlink:href="#mf7e1cadc18" x="427.372813" y="459.475256" style="stroke: #000000; stroke-width: 0.8"/>
      </g>
     </g>
     <g id="text_3">
      <!-- 0.00 -->
      <g transform="translate(416.24 474.073694) scale(0.1 -0.1)">
       <use xlink:href="#DejaVuSans-30"/>
       <use xlink:href="#DejaVuSans-2e" transform="translate(63.623047 0)"/>
       <use xlink:href="#DejaVuSans-30" transform="translate(95.410156 0)"/>
       <use xlink:href="#DejaVuSans-30" transform="translate(159.033203 0)"/>
      </g>
     </g>
    </g>
    <g id="xtick_4">
     <g id="line2d_7">
      <path d="M 560.761903 459.475256 
L 560.761903 38.597656 
" clip-path="url(#p57184723f7)" style="fill: none; stroke-dasharray: 2.96,1.28; stroke-dashoffset: 0; stroke: #b0b0b0; stroke-opacity: 0.4; stroke-width: 0.8"/>
     </g>
     <g id="line2d_8">
      <g>
       <use xlink:href="#mf7e1cadc18" x="560.761903" y="459.475256" style="stroke: #000000; stroke-width: 0.8"/>
      </g>
     </g>
     <g id="text_4">
      <!-- 0.02 -->
      <g transform="translate(549.629091 474.073694) scale(0.1 -0.1)">
       <use xlink:href="#DejaVuSans-30"/>
       <use xlink:href="#DejaVuSans-2e" transform="translate(63.623047 0)"/>
       <use xlink:href="#DejaVuSans-30" transform="translate(95.410156 0)"/>
       <use xlink:href="#DejaVuSans-32" transform="translate(159.033203 0)"/>
      </g>
     </g>
    </g>
    <g id="xtick_5">
     <g id="line2d_9">
      <path d="M 694.150994 459.475256 
L 694.150994 38.597656 
" clip-path="url(#p57184723f7)" style="fill: none; stroke-dasharray: 2.96,1.28; stroke-dashoffset: 0; stroke: #b0b0b0; stroke-opacity: 0.4; stroke-width: 0.8"/>
     </g>
     <g id="line2d_10">
      <g>
       <use xlink:href="#mf7e1cadc18" x="694.150994" y="459.475256" style="stroke: #000000; stroke-width: 0.8"/>
      </g>
     </g>
     <g id="text_5">
      <!-- 0.04 -->
      <g transform="translate(683.018182 474.073694) scale(0.1 -0.1)">
       <use xlink:href="#DejaVuSans-30"/>
       <use xlink:href="#DejaVuSans-2e" transform="translate(63.623047 0)"/>
       <use xlink:href="#DejaVuSans-30" transform="translate(95.410156 0)"/>
       <use xlink:href="#DejaVuSans-34" transform="translate(159.033203 0)"/>
      </g>
     </g>
    </g>
    <g id="text_6">
     <!-- Growth Rate (h⁻¹) -->
     <g transform="translate(367.350313 489.271506) scale(0.12 -0.12)">
      <defs>
       <path id="DejaVuSans-Bold-47" d="M 4781 347 
Q 4331 128 3847 18 
Q 3363 -91 2847 -91 
Q 1681 -91 1000 561 
Q 319 1213 319 2328 
Q 319 3456 1012 4103 
Q 1706 4750 2913 4750 
Q 3378 4750 3804 4662 
Q 4231 4575 4609 4403 
L 4609 3438 
Q 4219 3659 3833 3768 
Q 3447 3878 3059 3878 
Q 2341 3878 1952 3476 
Q 1563 3075 1563 2328 
Q 1563 1588 1938 1184 
Q 2313 781 3003 781 
Q 3191 781 3352 804 
Q 3513 828 3641 878 
L 3641 1784 
L 2906 1784 
L 2906 2591 
L 4781 2591 
L 4781 347 
z
" transform="scale(0.015625)"/>
       <path id="DejaVuSans-Bold-72" d="M 3138 2547 
Q 2991 2616 2845 2648 
Q 2700 2681 2553 2681 
Q 2122 2681 1889 2404 
Q 1656 2128 1656 1613 
L 1656 0 
L 538 0 
L 538 3500 
L 1656 3500 
L 1656 2925 
Q 1872 3269 2151 3426 
Q 2431 3584 2822 3584 
Q 2878 3584 2943 3579 
Q 3009 3575 3134 3559 
L 3138 2547 
z
" transform="scale(0.015625)"/>
       <path id="DejaVuSans-Bold-6f" d="M 2203 2784 
Q 1831 2784 1636 2517 
Q 1441 2250 1441 1747 
Q 1441 1244 1636 976 
Q 1831 709 2203 709 
Q 2569 709 2762 976 
Q 2956 1244 2956 1747 
Q 2956 2250 2762 2517 
Q 2569 2784 2203 2784 
z
M 2203 3584 
Q 3106 3584 3614 3096 
Q 4122 2609 4122 1747 
Q 4122 884 3614 396 
Q 3106 -91 2203 -91 
Q 1297 -91 786 396 
Q 275 884 275 1747 
Q 275 2609 786 3096 
Q 1297 3584 2203 3584 
z
" transform="scale(0.015625)"/>
       <path id="DejaVuSans-Bold-77" d="M 225 3500 
L 1313 3500 
L 1900 1088 
L 2491 3500 
L 3425 3500 
L 4013 1113 
L 4603 3500 
L 5691 3500 
L 4769 0 
L 3547 0 
L 2956 2406 
L 2369 0 
L 1147 0 
L 225 3500 
z
" transform="scale(0.015625)"/>
       <path id="DejaVuSans-Bold-74" d="M 1759 4494 
L 1759 3500 
L 2913 3500 
L 2913 2700 
L 1759 2700 
L 1759 1216 
Q 1759 972 1856 886 
Q 1953 800 2241 800 
L 2816 800 
L 2816 0 
L 1856 0 
Q 1194 0 917 276 
Q 641 553 641 1216 
L 641 2700 
L 84 2700 
L 84 3500 
L 641 3500 
L 641 4494 
L 1759 4494 
z
" transform="scale(0.015625)"/>
       <path id="DejaVuSans-Bold-68" d="M 4056 2131 
L 4056 0 
L 2931 0 
L 2931 347 
L 2931 1625 
Q 2931 2084 2911 2256 
Q 2891 2428 2841 2509 
Q 2775 2619 2662 2680 
Q 2550 2741 2406 2741 
Q 2056 2741 1856 2470 
Q 1656 2200 1656 1722 
L 1656 0 
L 538 0 
L 538 4863 
L 1656 4863 
L 1656 2988 
Q 1909 3294 2193 3439 
Q 2478 3584 2822 3584 
Q 3428 3584 3742 3212 
Q 4056 2841 4056 2131 
z
" transform="scale(0.015625)"/>
       <path id="DejaVuSans-Bold-20" transform="scale(0.015625)"/>
       <path id="DejaVuSans-Bold-52" d="M 2297 2597 
Q 2675 2597 2839 2737 
Q 3003 2878 3003 3200 
Q 3003 3519 2839 3656 
Q 2675 3794 2297 3794 
L 1791 3794 
L 1791 2597 
L 2297 2597 
z
M 1791 1766 
L 1791 0 
L 588 0 
L 588 4666 
L 2425 4666 
Q 3347 4666 3776 4356 
Q 4206 4047 4206 3378 
Q 4206 2916 3982 2619 
Q 3759 2322 3309 2181 
Q 3556 2125 3751 1926 
Q 3947 1728 4147 1325 
L 4800 0 
L 3519 0 
L 2950 1159 
Q 2778 1509 2601 1637 
Q 2425 1766 2131 1766 
L 1791 1766 
z
" transform="scale(0.015625)"/>
       <path id="DejaVuSans-Bold-61" d="M 2106 1575 
Q 1756 1575 1579 1456 
Q 1403 1338 1403 1106 
Q 1403 894 1545 773 
Q 1688 653 1941 653 
Q 2256 653 2472 879 
Q 2688 1106 2688 1447 
L 2688 1575 
L 2106 1575 
z
M 3816 1997 
L 3816 0 
L 2688 0 
L 2688 519 
Q 2463 200 2181 54 
Q 1900 -91 1497 -91 
Q 953 -91 614 226 
Q 275 544 275 1050 
Q 275 1666 698 1953 
Q 1122 2241 2028 2241 
L 2688 2241 
L 2688 2328 
Q 2688 2594 2478 2717 
Q 2269 2841 1825 2841 
Q 1466 2841 1156 2769 
Q 847 2697 581 2553 
L 581 3406 
Q 941 3494 1303 3539 
Q 1666 3584 2028 3584 
Q 2975 3584 3395 3211 
Q 3816 2838 3816 1997 
z
" transform="scale(0.015625)"/>
       <path id="DejaVuSans-Bold-65" d="M 4031 1759 
L 4031 1441 
L 1416 1441 
Q 1456 1047 1700 850 
Q 1944 653 2381 653 
Q 2734 653 3104 758 
Q 3475 863 3866 1075 
L 3866 213 
Q 3469 63 3072 -14 
Q 2675 -91 2278 -91 
Q 1328 -91 801 392 
Q 275 875 275 1747 
Q 275 2603 792 3093 
Q 1309 3584 2216 3584 
Q 3041 3584 3536 3087 
Q 4031 2591 4031 1759 
z
M 2881 2131 
Q 2881 2450 2695 2645 
Q 2509 2841 2209 2841 
Q 1884 2841 1681 2658 
Q 1478 2475 1428 2131 
L 2881 2131 
z
" transform="scale(0.015625)"/>
       <path id="DejaVuSans-Bold-28" d="M 2413 -844 
L 1484 -844 
Q 1006 -72 778 623 
Q 550 1319 550 2003 
Q 550 2688 779 3389 
Q 1009 4091 1484 4856 
L 2413 4856 
Q 2013 4116 1813 3408 
Q 1613 2700 1613 2009 
Q 1613 1319 1811 609 
Q 2009 -100 2413 -844 
z
" transform="scale(0.015625)"/>
       <path id="DejaVuSans-Bold-207b" d="M 428 3419 
L 2950 3419 
L 2950 3003 
L 428 3003 
L 428 3419 
z
" transform="scale(0.015625)"/>
       <path id="DejaVuSans-Bold-b9" d="M 441 2578 
L 1088 2578 
L 1088 4206 
L 384 4044 
L 384 4544 
L 1100 4697 
L 1806 4697 
L 1806 2578 
L 2444 2578 
L 2444 2088 
L 441 2088 
L 441 2578 
z
" transform="scale(0.015625)"/>
       <path id="DejaVuSans-Bold-29" d="M 513 -844 
Q 913 -100 1113 609 
Q 1313 1319 1313 2009 
Q 1313 2700 1113 3408 
Q 913 4116 513 4856 
L 1441 4856 
Q 1916 4091 2145 3389 
Q 2375 2688 2375 2003 
Q 2375 1319 2147 623 
Q 1919 -72 1441 -844 
L 513 -844 
z
" transform="scale(0.015625)"/>
      </defs>
      <use xlink:href="#DejaVuSans-Bold-47"/>
      <use xlink:href="#DejaVuSans-Bold-72" transform="translate(82.080078 0)"/>
      <use xlink:href="#DejaVuSans-Bold-6f" transform="translate(131.396484 0)"/>
      <use xlink:href="#DejaVuSans-Bold-77" transform="translate(200.097656 0)"/>
      <use xlink:href="#DejaVuSans-Bold-74" transform="translate(292.480469 0)"/>
      <use xlink:href="#DejaVuSans-Bold-68" transform="translate(340.283203 0)"/>
      <use xlink:href="#DejaVuSans-Bold-20" transform="translate(411.474609 0)"/>
      <use xlink:href="#DejaVuSans-Bold-52" transform="translate(446.289062 0)"/>
      <use xlink:href="#DejaVuSans-Bold-61" transform="translate(523.291016 0)"/>
      <use xlink:href="#DejaVuSans-Bold-74" transform="translate(590.771484 0)"/>
      <use xlink:href="#DejaVuSans-Bold-65" transform="translate(638.574219 0)"/>
      <use xlink:href="#DejaVuSans-Bold-20" transform="translate(706.396484 0)"/>
      <use xlink:href="#DejaVuSans-Bold-28" transform="translate(741.210938 0)"/>
      <use xlink:href="#DejaVuSans-Bold-68" transform="translate(786.914062 0)"/>
      <use xlink:href="#DejaVuSans-Bold-207b" transform="translate(858.105469 0)"/>
      <use xlink:href="#DejaVuSans-Bold-b9" transform="translate(910.888672 0)"/>
      <use xlink:href="#DejaVuSans-Bold-29" transform="translate(954.6875 0)"/>
     </g>
    </g>
   </g>
   <g id="matplotlib.axis_2">
    <g id="ytick_1">
     <g id="line2d_11">
      <path d="M 60.552813 402.082856 
L 794.192812 402.082856 
" clip-path="url(#p57184723f7)" style="fill: none; stroke-dasharray: 2.96,1.28; stroke-dashoffset: 0; stroke: #b0b0b0; stroke-opacity: 0.4; stroke-width: 0.8"/>
     </g>
     <g id="line2d_12">
      <defs>
       <path id="md2aef06887" d="M 0 0 
L -3.5 0 
" style="stroke: #000000; stroke-width: 0.8"/>
      </defs>
      <g>
       <use xlink:href="#md2aef06887" x="60.552813" y="402.082856" style="stroke: #000000; stroke-width: 0.8"/>
      </g>
     </g>
     <g id="text_7">
      <!-- −0.04 -->
      <g transform="translate(22.9075 405.882075) scale(0.1 -0.1)">
       <use xlink:href="#DejaVuSans-2212"/>
       <use xlink:href="#DejaVuSans-30" transform="translate(83.789062 0)"/>
       <use xlink:href="#DejaVuSans-2e" transform="translate(147.412109 0)"/>
       <use xlink:href="#DejaVuSans-30" transform="translate(179.199219 0)"/>
       <use xlink:href="#DejaVuSans-34" transform="translate(242.822266 0)"/>
      </g>
     </g>
    </g>
    <g id="ytick_2">
     <g id="line2d_13">
      <path d="M 60.552813 325.559656 
L 794.192812 325.559656 
" clip-path="url(#p57184723f7)" style="fill: none; stroke-dasharray: 2.96,1.28; stroke-dashoffset: 0; stroke: #b0b0b0; stroke-opacity: 0.4; stroke-width: 0.8"/>
     </g>
     <g id="line2d_14">
      <g>
       <use xlink:href="#md2aef06887" x="60.552813" y="325.559656" style="stroke: #000000; stroke-width: 0.8"/>
      </g>
     </g>
     <g id="text_8">
      <!-- −0.02 -->
      <g transform="translate(22.9075 329.358875) scale(0.1 -0.1)">
       <use xlink:href="#DejaVuSans-2212"/>
       <use xlink:href="#DejaVuSans-30" transform="translate(83.789062 0)"/>
       <use xlink:href="#DejaVuSans-2e" transform="translate(147.412109 0)"/>
       <use xlink:href="#DejaVuSans-30" transform="translate(179.199219 0)"/>
       <use xlink:href="#DejaVuSans-32" transform="translate(242.822266 0)"/>
      </g>
     </g>
    </g>
    <g id="ytick_3">
     <g id="line2d_15">
      <path d="M 60.552813 249.036456 
L 794.192812 249.036456 
" clip-path="url(#p57184723f7)" style="fill: none; stroke-dasharray: 2.96,1.28; stroke-dashoffset: 0; stroke: #b0b0b0; stroke-opacity: 0.4; stroke-width: 0.8"/>
     </g>
     <g id="line2d_16">
      <g>
       <use xlink:href="#md2aef06887" x="60.552813" y="249.036456" style="stroke: #000000; stroke-width: 0.8"/>
      </g>
     </g>
     <g id="text_9">
      <!-- 0.00 -->
      <g transform="translate(31.287188 252.835675) scale(0.1 -0.1)">
       <use xlink:href="#DejaVuSans-30"/>
       <use xlink:href="#DejaVuSans-2e" transform="translate(63.623047 0)"/>
       <use xlink:href="#DejaVuSans-30" transform="translate(95.410156 0)"/>
       <use xlink:href="#DejaVuSans-30" transform="translate(159.033203 0)"/>
      </g>
     </g>
    </g>
    <g id="ytick_4">
     <g id="line2d_17">
      <path d="M 60.552813 172.513256 
L 794.192812 172.513256 
" clip-path="url(#p57184723f7)" style="fill: none; stroke-dasharray: 2.96,1.28; stroke-dashoffset: 0; stroke: #b0b0b0; stroke-opacity: 0.4; stroke-width: 0.8"/>
     </g>
     <g id="line2d_18">
      <g>
       <use xlink:href="#md2aef06887" x="60.552813" y="172.513256" style="stroke: #000000; stroke-width: 0.8"/>
      </g>
     </g>
     <g id="text_10">
      <!-- 0.02 -->
      <g transform="translate(31.287188 176.312475) scale(0.1 -0.1)">
       <use xlink:href="#DejaVuSans-30"/>
       <use xlink:href="#DejaVuSans-2e" transform="translate(63.623047 0)"/>
       <use xlink:href="#DejaVuSans-30" transform="translate(95.410156 0)"/>
       <use xlink:href="#DejaVuSans-32" transform="translate(159.033203 0)"/>
      </g>
     </g>
    </g>
    <g id="ytick_5">
     <g id="line2d_19">
      <path d="M 60.552813 95.990056 
L 794.192812 95.990056 
" clip-path="url(#p57184723f7)" style="fill: none; stroke-dasharray: 2.96,1.28; stroke-dashoffset: 0; stroke: #b0b0b0; stroke-opacity: 0.4; stroke-width: 0.8"/>
     </g>
     <g id="line2d_20">
      <g>
       <use xlink:href="#md2aef06887" x="60.552813" y="95.990056" style="stroke: #000000; stroke-width: 0.8"/>
      </g>
     </g>
     <g id="text_11">
      <!-- 0.04 -->
      <g transform="translate(31.287188 99.789275) scale(0.1 -0.1)">
       <use xlink:href="#DejaVuSans-30"/>
       <use xlink:href="#DejaVuSans-2e" transform="translate(63.623047 0)"/>
       <use xlink:href="#DejaVuSans-30" transform="translate(95.410156 0)"/>
       <use xlink:href="#DejaVuSans-34" transform="translate(159.033203 0)"/>
      </g>
     </g>
    </g>
    <g id="text_12">
     <!-- DPA &amp; DHDP Flux (mmol/gDCW/h) -->
     <g transform="translate(16.318125 362.895831) rotate(-90) scale(0.12 -0.12)">
      <defs>
       <path id="DejaVuSans-Bold-44" d="M 1791 3756 
L 1791 909 
L 2222 909 
Q 2959 909 3348 1275 
Q 3738 1641 3738 2338 
Q 3738 3031 3350 3393 
Q 2963 3756 2222 3756 
L 1791 3756 
z
M 588 4666 
L 1856 4666 
Q 2919 4666 3439 4514 
Q 3959 4363 4331 4000 
Q 4659 3684 4818 3271 
Q 4978 2859 4978 2338 
Q 4978 1809 4818 1395 
Q 4659 981 4331 666 
Q 3956 303 3431 151 
Q 2906 0 1856 0 
L 588 0 
L 588 4666 
z
" transform="scale(0.015625)"/>
       <path id="DejaVuSans-Bold-50" d="M 588 4666 
L 2584 4666 
Q 3475 4666 3951 4270 
Q 4428 3875 4428 3144 
Q 4428 2409 3951 2014 
Q 3475 1619 2584 1619 
L 1791 1619 
L 1791 0 
L 588 0 
L 588 4666 
z
M 1791 3794 
L 1791 2491 
L 2456 2491 
Q 2806 2491 2997 2661 
Q 3188 2831 3188 3144 
Q 3188 3456 2997 3625 
Q 2806 3794 2456 3794 
L 1791 3794 
z
" transform="scale(0.015625)"/>
       <path id="DejaVuSans-Bold-41" d="M 3419 850 
L 1538 850 
L 1241 0 
L 31 0 
L 1759 4666 
L 3194 4666 
L 4922 0 
L 3713 0 
L 3419 850 
z
M 1838 1716 
L 3116 1716 
L 2478 3572 
L 1838 1716 
z
" transform="scale(0.015625)"/>
       <path id="DejaVuSans-Bold-26" d="M 2497 3097 
L 3775 1691 
Q 3941 1909 4027 2181 
Q 4113 2453 4128 2797 
L 5100 2797 
Q 5053 2228 4879 1784 
Q 4706 1341 4397 1006 
L 5313 0 
L 3988 0 
L 3681 341 
Q 3353 122 2990 15 
Q 2628 -91 2222 -91 
Q 1400 -91 892 342 
Q 384 775 384 1459 
Q 384 1916 607 2267 
Q 831 2619 1338 2950 
Q 1206 3116 1143 3281 
Q 1081 3447 1081 3628 
Q 1081 4138 1478 4444 
Q 1875 4750 2534 4750 
Q 2819 4750 3126 4704 
Q 3434 4659 3769 4569 
L 3769 3700 
Q 3475 3850 3212 3922 
Q 2950 3994 2700 3994 
Q 2459 3994 2326 3901 
Q 2194 3809 2194 3641 
Q 2194 3534 2270 3398 
Q 2347 3263 2497 3097 
z
M 1875 2322 
Q 1672 2175 1569 1989 
Q 1466 1803 1466 1581 
Q 1466 1222 1731 969 
Q 1997 716 2369 716 
Q 2578 716 2759 780 
Q 2941 844 3097 972 
L 1875 2322 
z
" transform="scale(0.015625)"/>
       <path id="DejaVuSans-Bold-48" d="M 588 4666 
L 1791 4666 
L 1791 2888 
L 3566 2888 
L 3566 4666 
L 4769 4666 
L 4769 0 
L 3566 0 
L 3566 1978 
L 1791 1978 
L 1791 0 
L 588 0 
L 588 4666 
z
" transform="scale(0.015625)"/>
       <path id="DejaVuSans-Bold-46" d="M 588 4666 
L 3834 4666 
L 3834 3756 
L 1791 3756 
L 1791 2888 
L 3713 2888 
L 3713 1978 
L 1791 1978 
L 1791 0 
L 588 0 
L 588 4666 
z
" transform="scale(0.015625)"/>
       <path id="DejaVuSans-Bold-6c" d="M 538 4863 
L 1656 4863 
L 1656 0 
L 538 0 
L 538 4863 
z
" transform="scale(0.015625)"/>
       <path id="DejaVuSans-Bold-75" d="M 500 1363 
L 500 3500 
L 1625 3500 
L 1625 3150 
Q 1625 2866 1622 2436 
Q 1619 2006 1619 1863 
Q 1619 1441 1641 1255 
Q 1663 1069 1716 984 
Q 1784 875 1895 815 
Q 2006 756 2150 756 
Q 2500 756 2700 1025 
Q 2900 1294 2900 1772 
L 2900 3500 
L 4019 3500 
L 4019 0 
L 2900 0 
L 2900 506 
Q 2647 200 2364 54 
Q 2081 -91 1741 -91 
Q 1134 -91 817 281 
Q 500 653 500 1363 
z
" transform="scale(0.015625)"/>
       <path id="DejaVuSans-Bold-78" d="M 1422 1791 
L 159 3500 
L 1344 3500 
L 2059 2463 
L 2784 3500 
L 3969 3500 
L 2706 1797 
L 4031 0 
L 2847 0 
L 2059 1106 
L 1281 0 
L 97 0 
L 1422 1791 
z
" transform="scale(0.015625)"/>
       <path id="DejaVuSans-Bold-6d" d="M 3781 2919 
Q 3994 3244 4286 3414 
Q 4578 3584 4928 3584 
Q 5531 3584 5847 3212 
Q 6163 2841 6163 2131 
L 6163 0 
L 5038 0 
L 5038 1825 
Q 5041 1866 5042 1909 
Q 5044 1953 5044 2034 
Q 5044 2406 4934 2573 
Q 4825 2741 4581 2741 
Q 4263 2741 4089 2478 
Q 3916 2216 3909 1719 
L 3909 0 
L 2784 0 
L 2784 1825 
Q 2784 2406 2684 2573 
Q 2584 2741 2328 2741 
Q 2006 2741 1831 2477 
Q 1656 2213 1656 1722 
L 1656 0 
L 531 0 
L 531 3500 
L 1656 3500 
L 1656 2988 
Q 1863 3284 2130 3434 
Q 2397 3584 2719 3584 
Q 3081 3584 3359 3409 
Q 3638 3234 3781 2919 
z
" transform="scale(0.015625)"/>
       <path id="DejaVuSans-Bold-2f" d="M 1644 4666 
L 2338 4666 
L 691 -594 
L 0 -594 
L 1644 4666 
z
" transform="scale(0.015625)"/>
       <path id="DejaVuSans-Bold-67" d="M 2919 594 
Q 2688 288 2409 144 
Q 2131 0 1766 0 
Q 1125 0 706 504 
Q 288 1009 288 1791 
Q 288 2575 706 3076 
Q 1125 3578 1766 3578 
Q 2131 3578 2409 3434 
Q 2688 3291 2919 2981 
L 2919 3500 
L 4044 3500 
L 4044 353 
Q 4044 -491 3511 -936 
Q 2978 -1381 1966 -1381 
Q 1638 -1381 1331 -1331 
Q 1025 -1281 716 -1178 
L 716 -306 
Q 1009 -475 1290 -558 
Q 1572 -641 1856 -641 
Q 2406 -641 2662 -400 
Q 2919 -159 2919 353 
L 2919 594 
z
M 2181 2772 
Q 1834 2772 1640 2515 
Q 1447 2259 1447 1791 
Q 1447 1309 1634 1061 
Q 1822 813 2181 813 
Q 2531 813 2725 1069 
Q 2919 1325 2919 1791 
Q 2919 2259 2725 2515 
Q 2531 2772 2181 2772 
z
" transform="scale(0.015625)"/>
       <path id="DejaVuSans-Bold-43" d="M 4288 256 
Q 3956 84 3597 -3 
Q 3238 -91 2847 -91 
Q 1681 -91 1000 561 
Q 319 1213 319 2328 
Q 319 3447 1000 4098 
Q 1681 4750 2847 4750 
Q 3238 4750 3597 4662 
Q 3956 4575 4288 4403 
L 4288 3438 
Q 3953 3666 3628 3772 
Q 3303 3878 2944 3878 
Q 2300 3878 1931 3465 
Q 1563 3053 1563 2328 
Q 1563 1606 1931 1193 
Q 2300 781 2944 781 
Q 3303 781 3628 887 
Q 3953 994 4288 1222 
L 4288 256 
z
" transform="scale(0.015625)"/>
       <path id="DejaVuSans-Bold-57" d="M 191 4666 
L 1344 4666 
L 2150 1275 
L 2950 4666 
L 4109 4666 
L 4909 1275 
L 5716 4666 
L 6859 4666 
L 5759 0 
L 4372 0 
L 3525 3547 
L 2688 0 
L 1300 0 
L 191 4666 
z
" transform="scale(0.015625)"/>
      </defs>
      <use xlink:href="#DejaVuSans-Bold-44"/>
      <use xlink:href="#DejaVuSans-Bold-50" transform="translate(83.007812 0)"/>
      <use xlink:href="#DejaVuSans-Bold-41" transform="translate(147.173828 0)"/>
      <use xlink:href="#DejaVuSans-Bold-20" transform="translate(224.566406 0)"/>
      <use xlink:href="#DejaVuSans-Bold-26" transform="translate(259.380859 0)"/>
      <use xlink:href="#DejaVuSans-Bold-20" transform="translate(346.587891 0)"/>
      <use xlink:href="#DejaVuSans-Bold-44" transform="translate(381.402344 0)"/>
      <use xlink:href="#DejaVuSans-Bold-48" transform="translate(464.410156 0)"/>
      <use xlink:href="#DejaVuSans-Bold-44" transform="translate(548.101562 0)"/>
      <use xlink:href="#DejaVuSans-Bold-50" transform="translate(631.109375 0)"/>
      <use xlink:href="#DejaVuSans-Bold-20" transform="translate(704.400391 0)"/>
      <use xlink:href="#DejaVuSans-Bold-46" transform="translate(739.214844 0)"/>
      <use xlink:href="#DejaVuSans-Bold-6c" transform="translate(807.525391 0)"/>
      <use xlink:href="#DejaVuSans-Bold-75" transform="translate(841.802734 0)"/>
      <use xlink:href="#DejaVuSans-Bold-78" transform="translate(912.994141 0)"/>
      <use xlink:href="#DejaVuSans-Bold-20" transform="translate(977.496094 0)"/>
      <use xlink:href="#DejaVuSans-Bold-28" transform="translate(1012.310547 0)"/>
      <use xlink:href="#DejaVuSans-Bold-6d" transform="translate(1058.013672 0)"/>
      <use xlink:href="#DejaVuSans-Bold-6d" transform="translate(1162.212891 0)"/>
      <use xlink:href="#DejaVuSans-Bold-6f" transform="translate(1266.412109 0)"/>
      <use xlink:href="#DejaVuSans-Bold-6c" transform="translate(1335.113281 0)"/>
      <use xlink:href="#DejaVuSans-Bold-2f" transform="translate(1369.390625 0)"/>
      <use xlink:href="#DejaVuSans-Bold-67" transform="translate(1405.914062 0)"/>
      <use xlink:href="#DejaVuSans-Bold-44" transform="translate(1477.496094 0)"/>
      <use xlink:href="#DejaVuSans-Bold-43" transform="translate(1560.503906 0)"/>
      <use xlink:href="#DejaVuSans-Bold-57" transform="translate(1633.892578 0)"/>
      <use xlink:href="#DejaVuSans-Bold-2f" transform="translate(1744.195312 0)"/>
      <use xlink:href="#DejaVuSans-Bold-68" transform="translate(1780.71875 0)"/>
      <use xlink:href="#DejaVuSans-Bold-29" transform="translate(1851.910156 0)"/>
     </g>
    </g>
   </g>
   <g id="line2d_21">
    <path d="M 427.372813 249.036456 
L 427.372813 249.036456 
L 427.372813 249.036456 
L 427.372813 249.036456 
L 427.372813 249.036456 
L 427.372813 249.036456 
" clip-path="url(#p57184723f7)" style="fill: none; stroke: #1f77b4; stroke-width: 3; stroke-linecap: square"/>
    <defs>
     <path id="maeac0a629f" d="M 0 3 
C 0.795609 3 1.55874 2.683901 2.12132 2.12132 
C 2.683901 1.55874 3 0.795609 3 0 
C 3 -0.795609 2.683901 -1.55874 2.12132 -2.12132 
C 1.55874 -2.683901 0.795609 -3 0 -3 
C -0.795609 -3 -1.55874 -2.683901 -2.12132 -2.12132 
C -2.683901 -1.55874 -3 -0.795609 -3 0 
C -3 0.795609 -2.683901 1.55874 -2.12132 2.12132 
C -1.55874 2.683901 -0.795609 3 0 3 
z
" style="stroke: #1f77b4"/>
    </defs>
    <g clip-path="url(#p57184723f7)">
     <use xlink:href="#maeac0a629f" x="427.372813" y="249.036456" style="fill: #1f77b4; stroke: #1f77b4"/>
     <use xlink:href="#maeac0a629f" x="427.372813" y="249.036456" style="fill: #1f77b4; stroke: #1f77b4"/>
     <use xlink:href="#maeac0a629f" x="427.372813" y="249.036456" style="fill: #1f77b4; stroke: #1f77b4"/>
     <use xlink:href="#maeac0a629f" x="427.372813" y="249.036456" style="fill: #1f77b4; stroke: #1f77b4"/>
     <use xlink:href="#maeac0a629f" x="427.372813" y="249.036456" style="fill: #1f77b4; stroke: #1f77b4"/>
     <use xlink:href="#maeac0a629f" x="427.372813" y="249.036456" style="fill: #1f77b4; stroke: #1f77b4"/>
    </g>
   </g>
   <g id="line2d_22">
    <path d="M 427.372813 249.036456 
L 427.372813 249.036456 
L 427.372813 249.036456 
L 427.372813 249.036456 
L 427.372813 249.036456 
L 427.372813 249.036456 
" clip-path="url(#p57184723f7)" style="fill: none; stroke-dasharray: 5.55,2.4; stroke-dashoffset: 0; stroke: #1f77b4; stroke-opacity: 0.6; stroke-width: 1.5"/>
    <defs>
     <path id="m4a929144d8" d="M -3 3 
L 3 3 
L 3 -3 
L -3 -3 
z
" style="stroke: #1f77b4; stroke-opacity: 0.6; stroke-linejoin: miter"/>
    </defs>
    <g clip-path="url(#p57184723f7)">
     <use xlink:href="#m4a929144d8" x="427.372813" y="249.036456" style="fill: #1f77b4; fill-opacity: 0.6; stroke: #1f77b4; stroke-opacity: 0.6; stroke-linejoin: miter"/>
     <use xlink:href="#m4a929144d8" x="427.372813" y="249.036456" style="fill: #1f77b4; fill-opacity: 0.6; stroke: #1f77b4; stroke-opacity: 0.6; stroke-linejoin: miter"/>
     <use xlink:href="#m4a929144d8" x="427.372813" y="249.036456" style="fill: #1f77b4; fill-opacity: 0.6; stroke: #1f77b4; stroke-opacity: 0.6; stroke-linejoin: miter"/>
     <use xlink:href="#m4a929144d8" x="427.372813" y="249.036456" style="fill: #1f77b4; fill-opacity: 0.6; stroke: #1f77b4; stroke-opacity: 0.6; stroke-linejoin: miter"/>
     <use xlink:href="#m4a929144d8" x="427.372813" y="249.036456" style="fill: #1f77b4; fill-opacity: 0.6; stroke: #1f77b4; stroke-opacity: 0.6; stroke-linejoin: miter"/>
     <use xlink:href="#m4a929144d8" x="427.372813" y="249.036456" style="fill: #1f77b4; fill-opacity: 0.6; stroke: #1f77b4; stroke-opacity: 0.6; stroke-linejoin: miter"/>
    </g>
   </g>
   <g id="patch_3">
    <path d="M 60.552813 459.475256 
L 60.552813 38.597656 
" style="fill: none; stroke: #000000; stroke-width: 0.8; stroke-linejoin: miter; stroke-linecap: square"/>
   </g>
   <g id="patch_4">
    <path d="M 794.192812 459.475256 
L 794.192812 38.597656 
" style="fill: none; stroke: #000000; stroke-width: 0.8; stroke-linejoin: miter; stroke-linecap: square"/>
   </g>
   <g id="patch_5">
    <path d="M 60.552812 459.475256 
L 794.192813 459.475256 
" style="fill: none; stroke: #000000; stroke-width: 0.8; stroke-linejoin: miter; stroke-linecap: square"/>
   </g>
   <g id="patch_6">
    <path d="M 60.552812 38.597656 
L 794.192813 38.597656 
" style="fill: none; stroke: #000000; stroke-width: 0.8; stroke-linejoin: miter; stroke-linecap: square"/>
   </g>
   <g id="legend_1">
    <g id="patch_7">
     <path d="M 339.679375 558.811506 
L 519.06625 558.811506 
Q 520.86625 558.811506 520.86625 557.011506 
L 520.86625 518.280568 
Q 520.86625 516.480568 519.06625 516.480568 
L 339.679375 516.480568 
Q 337.879375 516.480568 337.879375 518.280568 
L 337.879375 557.011506 
Q 337.879375 558.811506 339.679375 558.811506 
z
" style="fill: #4d4d4d; opacity: 0.5; stroke: #4d4d4d; stroke-linejoin: miter"/>
    </g>
    <g id="patch_8">
     <path d="M 337.679375 556.811506 
L 517.06625 556.811506 
Q 518.86625 556.811506 518.86625 555.011506 
L 518.86625 516.280568 
Q 518.86625 514.480568 517.06625 514.480568 
L 337.679375 514.480568 
Q 335.879375 514.480568 335.879375 516.280568 
L 335.879375 555.011506 
Q 335.879375 556.811506 337.679375 556.811506 
z
" style="fill: #ffffff; stroke: #cccccc; stroke-linejoin: miter"/>
    </g>
    <g id="line2d_23">
     <path d="M 339.479375 521.769162 
L 348.479375 521.769162 
L 357.479375 521.769162 
" style="fill: none; stroke: #1f77b4; stroke-width: 3; stroke-linecap: square"/>
     <g>
      <use xlink:href="#maeac0a629f" x="348.479375" y="521.769162" style="fill: #1f77b4; stroke: #1f77b4"/>
     </g>
    </g>
    <g id="text_13">
     <!-- Glutamate (alsSD KO) [DPA] -->
     <g transform="translate(364.679375 524.919162) scale(0.09 -0.09)">
      <defs>
       <path id="DejaVuSans-47" d="M 3809 666 
L 3809 1919 
L 2778 1919 
L 2778 2438 
L 4434 2438 
L 4434 434 
Q 4069 175 3628 42 
Q 3188 -91 2688 -91 
Q 1594 -91 976 548 
Q 359 1188 359 2328 
Q 359 3472 976 4111 
Q 1594 4750 2688 4750 
Q 3144 4750 3555 4637 
Q 3966 4525 4313 4306 
L 4313 3634 
Q 3963 3931 3569 4081 
Q 3175 4231 2741 4231 
Q 1884 4231 1454 3753 
Q 1025 3275 1025 2328 
Q 1025 1384 1454 906 
Q 1884 428 2741 428 
Q 3075 428 3337 486 
Q 3600 544 3809 666 
z
" transform="scale(0.015625)"/>
       <path id="DejaVuSans-6c" d="M 603 4863 
L 1178 4863 
L 1178 0 
L 603 0 
L 603 4863 
z
" transform="scale(0.015625)"/>
       <path id="DejaVuSans-75" d="M 544 1381 
L 544 3500 
L 1119 3500 
L 1119 1403 
Q 1119 906 1312 657 
Q 1506 409 1894 409 
Q 2359 409 2629 706 
Q 2900 1003 2900 1516 
L 2900 3500 
L 3475 3500 
L 3475 0 
L 2900 0 
L 2900 538 
Q 2691 219 2414 64 
Q 2138 -91 1772 -91 
Q 1169 -91 856 284 
Q 544 659 544 1381 
z
M 1991 3584 
L 1991 3584 
z
" transform="scale(0.015625)"/>
       <path id="DejaVuSans-74" d="M 1172 4494 
L 1172 3500 
L 2356 3500 
L 2356 3053 
L 1172 3053 
L 1172 1153 
Q 1172 725 1289 603 
Q 1406 481 1766 481 
L 2356 481 
L 2356 0 
L 1766 0 
Q 1100 0 847 248 
Q 594 497 594 1153 
L 594 3053 
L 172 3053 
L 172 3500 
L 594 3500 
L 594 4494 
L 1172 4494 
z
" transform="scale(0.015625)"/>
       <path id="DejaVuSans-61" d="M 2194 1759 
Q 1497 1759 1228 1600 
Q 959 1441 959 1056 
Q 959 750 1161 570 
Q 1363 391 1709 391 
Q 2188 391 2477 730 
Q 2766 1069 2766 1631 
L 2766 1759 
L 2194 1759 
z
M 3341 1997 
L 3341 0 
L 2766 0 
L 2766 531 
Q 2569 213 2275 61 
Q 1981 -91 1556 -91 
Q 1019 -91 701 211 
Q 384 513 384 1019 
Q 384 1609 779 1909 
Q 1175 2209 1959 2209 
L 2766 2209 
L 2766 2266 
Q 2766 2663 2505 2880 
Q 2244 3097 1772 3097 
Q 1472 3097 1187 3025 
Q 903 2953 641 2809 
L 641 3341 
Q 956 3463 1253 3523 
Q 1550 3584 1831 3584 
Q 2591 3584 2966 3190 
Q 3341 2797 3341 1997 
z
" transform="scale(0.015625)"/>
       <path id="DejaVuSans-6d" d="M 3328 2828 
Q 3544 3216 3844 3400 
Q 4144 3584 4550 3584 
Q 5097 3584 5394 3201 
Q 5691 2819 5691 2113 
L 5691 0 
L 5113 0 
L 5113 2094 
Q 5113 2597 4934 2840 
Q 4756 3084 4391 3084 
Q 3944 3084 3684 2787 
Q 3425 2491 3425 1978 
L 3425 0 
L 2847 0 
L 2847 2094 
Q 2847 2600 2669 2842 
Q 2491 3084 2119 3084 
Q 1678 3084 1418 2786 
Q 1159 2488 1159 1978 
L 1159 0 
L 581 0 
L 581 3500 
L 1159 3500 
L 1159 2956 
Q 1356 3278 1631 3431 
Q 1906 3584 2284 3584 
Q 2666 3584 2933 3390 
Q 3200 3197 3328 2828 
z
" transform="scale(0.015625)"/>
       <path id="DejaVuSans-65" d="M 3597 1894 
L 3597 1613 
L 953 1613 
Q 991 1019 1311 708 
Q 1631 397 2203 397 
Q 2534 397 2845 478 
Q 3156 559 3463 722 
L 3463 178 
Q 3153 47 2828 -22 
Q 2503 -91 2169 -91 
Q 1331 -91 842 396 
Q 353 884 353 1716 
Q 353 2575 817 3079 
Q 1281 3584 2069 3584 
Q 2775 3584 3186 3129 
Q 3597 2675 3597 1894 
z
M 3022 2063 
Q 3016 2534 2758 2815 
Q 2500 3097 2075 3097 
Q 1594 3097 1305 2825 
Q 1016 2553 972 2059 
L 3022 2063 
z
" transform="scale(0.015625)"/>
       <path id="DejaVuSans-20" transform="scale(0.015625)"/>
       <path id="DejaVuSans-28" d="M 1984 4856 
Q 1566 4138 1362 3434 
Q 1159 2731 1159 2009 
Q 1159 1288 1364 580 
Q 1569 -128 1984 -844 
L 1484 -844 
Q 1016 -109 783 600 
Q 550 1309 550 2009 
Q 550 2706 781 3412 
Q 1013 4119 1484 4856 
L 1984 4856 
z
" transform="scale(0.015625)"/>
       <path id="DejaVuSans-73" d="M 2834 3397 
L 2834 2853 
Q 2591 2978 2328 3040 
Q 2066 3103 1784 3103 
Q 1356 3103 1142 2972 
Q 928 2841 928 2578 
Q 928 2378 1081 2264 
Q 1234 2150 1697 2047 
L 1894 2003 
Q 2506 1872 2764 1633 
Q 3022 1394 3022 966 
Q 3022 478 2636 193 
Q 2250 -91 1575 -91 
Q 1294 -91 989 -36 
Q 684 19 347 128 
L 347 722 
Q 666 556 975 473 
Q 1284 391 1588 391 
Q 1994 391 2212 530 
Q 2431 669 2431 922 
Q 2431 1156 2273 1281 
Q 2116 1406 1581 1522 
L 1381 1569 
Q 847 1681 609 1914 
Q 372 2147 372 2553 
Q 372 3047 722 3315 
Q 1072 3584 1716 3584 
Q 2034 3584 2315 3537 
Q 2597 3491 2834 3397 
z
" transform="scale(0.015625)"/>
       <path id="DejaVuSans-53" d="M 3425 4513 
L 3425 3897 
Q 3066 4069 2747 4153 
Q 2428 4238 2131 4238 
Q 1616 4238 1336 4038 
Q 1056 3838 1056 3469 
Q 1056 3159 1242 3001 
Q 1428 2844 1947 2747 
L 2328 2669 
Q 3034 2534 3370 2195 
Q 3706 1856 3706 1288 
Q 3706 609 3251 259 
Q 2797 -91 1919 -91 
Q 1588 -91 1214 -16 
Q 841 59 441 206 
L 441 856 
Q 825 641 1194 531 
Q 1563 422 1919 422 
Q 2459 422 2753 634 
Q 3047 847 3047 1241 
Q 3047 1584 2836 1778 
Q 2625 1972 2144 2069 
L 1759 2144 
Q 1053 2284 737 2584 
Q 422 2884 422 3419 
Q 422 4038 858 4394 
Q 1294 4750 2059 4750 
Q 2388 4750 2728 4690 
Q 3069 4631 3425 4513 
z
" transform="scale(0.015625)"/>
       <path id="DejaVuSans-44" d="M 1259 4147 
L 1259 519 
L 2022 519 
Q 2988 519 3436 956 
Q 3884 1394 3884 2338 
Q 3884 3275 3436 3711 
Q 2988 4147 2022 4147 
L 1259 4147 
z
M 628 4666 
L 1925 4666 
Q 3281 4666 3915 4102 
Q 4550 3538 4550 2338 
Q 4550 1131 3912 565 
Q 3275 0 1925 0 
L 628 0 
L 628 4666 
z
" transform="scale(0.015625)"/>
       <path id="DejaVuSans-4b" d="M 628 4666 
L 1259 4666 
L 1259 2694 
L 3353 4666 
L 4166 4666 
L 1850 2491 
L 4331 0 
L 3500 0 
L 1259 2247 
L 1259 0 
L 628 0 
L 628 4666 
z
" transform="scale(0.015625)"/>
       <path id="DejaVuSans-4f" d="M 2522 4238 
Q 1834 4238 1429 3725 
Q 1025 3213 1025 2328 
Q 1025 1447 1429 934 
Q 1834 422 2522 422 
Q 3209 422 3611 934 
Q 4013 1447 4013 2328 
Q 4013 3213 3611 3725 
Q 3209 4238 2522 4238 
z
M 2522 4750 
Q 3503 4750 4090 4092 
Q 4678 3434 4678 2328 
Q 4678 1225 4090 567 
Q 3503 -91 2522 -91 
Q 1538 -91 948 565 
Q 359 1222 359 2328 
Q 359 3434 948 4092 
Q 1538 4750 2522 4750 
z
" transform="scale(0.015625)"/>
       <path id="DejaVuSans-29" d="M 513 4856 
L 1013 4856 
Q 1481 4119 1714 3412 
Q 1947 2706 1947 2009 
Q 1947 1309 1714 600 
Q 1481 -109 1013 -844 
L 513 -844 
Q 928 -128 1133 580 
Q 1338 1288 1338 2009 
Q 1338 2731 1133 3434 
Q 928 4138 513 4856 
z
" transform="scale(0.015625)"/>
       <path id="DejaVuSans-5b" d="M 550 4863 
L 1875 4863 
L 1875 4416 
L 1125 4416 
L 1125 -397 
L 1875 -397 
L 1875 -844 
L 550 -844 
L 550 4863 
z
" transform="scale(0.015625)"/>
       <path id="DejaVuSans-50" d="M 1259 4147 
L 1259 2394 
L 2053 2394 
Q 2494 2394 2734 2622 
Q 2975 2850 2975 3272 
Q 2975 3691 2734 3919 
Q 2494 4147 2053 4147 
L 1259 4147 
z
M 628 4666 
L 2053 4666 
Q 2838 4666 3239 4311 
Q 3641 3956 3641 3272 
Q 3641 2581 3239 2228 
Q 2838 1875 2053 1875 
L 1259 1875 
L 1259 0 
L 628 0 
L 628 4666 
z
" transform="scale(0.015625)"/>
       <path id="DejaVuSans-41" d="M 2188 4044 
L 1331 1722 
L 3047 1722 
L 2188 4044 
z
M 1831 4666 
L 2547 4666 
L 4325 0 
L 3669 0 
L 3244 1197 
L 1141 1197 
L 716 0 
L 50 0 
L 1831 4666 
z
" transform="scale(0.015625)"/>
       <path id="DejaVuSans-5d" d="M 1947 4863 
L 1947 -844 
L 622 -844 
L 622 -397 
L 1369 -397 
L 1369 4416 
L 622 4416 
L 622 4863 
L 1947 4863 
z
" transform="scale(0.015625)"/>
      </defs>
      <use xlink:href="#DejaVuSans-47"/>
      <use xlink:href="#DejaVuSans-6c" transform="translate(77.490234 0)"/>
      <use xlink:href="#DejaVuSans-75" transform="translate(105.273438 0)"/>
      <use xlink:href="#DejaVuSans-74" transform="translate(168.652344 0)"/>
      <use xlink:href="#DejaVuSans-61" transform="translate(207.861328 0)"/>
      <use xlink:href="#DejaVuSans-6d" transform="translate(269.140625 0)"/>
      <use xlink:href="#DejaVuSans-61" transform="translate(366.552734 0)"/>
      <use xlink:href="#DejaVuSans-74" transform="translate(427.832031 0)"/>
      <use xlink:href="#DejaVuSans-65" transform="translate(467.041016 0)"/>
      <use xlink:href="#DejaVuSans-20" transform="translate(528.564453 0)"/>
      <use xlink:href="#DejaVuSans-28" transform="translate(560.351562 0)"/>
      <use xlink:href="#DejaVuSans-61" transform="translate(599.365234 0)"/>
      <use xlink:href="#DejaVuSans-6c" transform="translate(660.644531 0)"/>
      <use xlink:href="#DejaVuSans-73" transform="translate(688.427734 0)"/>
      <use xlink:href="#DejaVuSans-53" transform="translate(740.527344 0)"/>
      <use xlink:href="#DejaVuSans-44" transform="translate(804.003906 0)"/>
      <use xlink:href="#DejaVuSans-20" transform="translate(881.005859 0)"/>
      <use xlink:href="#DejaVuSans-4b" transform="translate(912.792969 0)"/>
      <use xlink:href="#DejaVuSans-4f" transform="translate(972.869141 0)"/>
      <use xlink:href="#DejaVuSans-29" transform="translate(1051.580078 0)"/>
      <use xlink:href="#DejaVuSans-20" transform="translate(1090.59375 0)"/>
      <use xlink:href="#DejaVuSans-5b" transform="translate(1122.380859 0)"/>
      <use xlink:href="#DejaVuSans-44" transform="translate(1161.394531 0)"/>
      <use xlink:href="#DejaVuSans-50" transform="translate(1238.396484 0)"/>
      <use xlink:href="#DejaVuSans-41" transform="translate(1292.324219 0)"/>
      <use xlink:href="#DejaVuSans-5d" transform="translate(1360.732422 0)"/>
     </g>
    </g>
    <g id="line2d_24">
     <path d="M 339.479375 534.979474 
L 348.479375 534.979474 
L 357.479375 534.979474 
" style="fill: none; stroke-dasharray: 5.55,2.4; stroke-dashoffset: 0; stroke: #1f77b4; stroke-opacity: 0.6; stroke-width: 1.5"/>
     <g>
      <use xlink:href="#m4a929144d8" x="348.479375" y="534.979474" style="fill: #1f77b4; fill-opacity: 0.6; stroke: #1f77b4; stroke-opacity: 0.6; stroke-linejoin: miter"/>
     </g>
    </g>
    <g id="text_14">
     <!-- Glutamate (alsSD KO) [Precursor] -->
     <g transform="translate(364.679375 538.129474) scale(0.09 -0.09)">
      <defs>
       <path id="DejaVuSans-72" d="M 2631 2963 
Q 2534 3019 2420 3045 
Q 2306 3072 2169 3072 
Q 1681 3072 1420 2755 
Q 1159 2438 1159 1844 
L 1159 0 
L 581 0 
L 581 3500 
L 1159 3500 
L 1159 2956 
Q 1341 3275 1631 3429 
Q 1922 3584 2338 3584 
Q 2397 3584 2469 3576 
Q 2541 3569 2628 3553 
L 2631 2963 
z
" transform="scale(0.015625)"/>
       <path id="DejaVuSans-63" d="M 3122 3366 
L 3122 2828 
Q 2878 2963 2633 3030 
Q 2388 3097 2138 3097 
Q 1578 3097 1268 2742 
Q 959 2388 959 1747 
Q 959 1106 1268 751 
Q 1578 397 2138 397 
Q 2388 397 2633 464 
Q 2878 531 3122 666 
L 3122 134 
Q 2881 22 2623 -34 
Q 2366 -91 2075 -91 
Q 1284 -91 818 406 
Q 353 903 353 1747 
Q 353 2603 823 3093 
Q 1294 3584 2113 3584 
Q 2378 3584 2631 3529 
Q 2884 3475 3122 3366 
z
" transform="scale(0.015625)"/>
       <path id="DejaVuSans-6f" d="M 1959 3097 
Q 1497 3097 1228 2736 
Q 959 2375 959 1747 
Q 959 1119 1226 758 
Q 1494 397 1959 397 
Q 2419 397 2687 759 
Q 2956 1122 2956 1747 
Q 2956 2369 2687 2733 
Q 2419 3097 1959 3097 
z
M 1959 3584 
Q 2709 3584 3137 3096 
Q 3566 2609 3566 1747 
Q 3566 888 3137 398 
Q 2709 -91 1959 -91 
Q 1206 -91 779 398 
Q 353 888 353 1747 
Q 353 2609 779 3096 
Q 1206 3584 1959 3584 
z
" transform="scale(0.015625)"/>
      </defs>
      <use xlink:href="#DejaVuSans-47"/>
      <use xlink:href="#DejaVuSans-6c" transform="translate(77.490234 0)"/>
      <use xlink:href="#DejaVuSans-75" transform="translate(105.273438 0)"/>
      <use xlink:href="#DejaVuSans-74" transform="translate(168.652344 0)"/>
      <use xlink:href="#DejaVuSans-61" transform="translate(207.861328 0)"/>
      <use xlink:href="#DejaVuSans-6d" transform="translate(269.140625 0)"/>
      <use xlink:href="#DejaVuSans-61" transform="translate(366.552734 0)"/>
      <use xlink:href="#DejaVuSans-74" transform="translate(427.832031 0)"/>
      <use xlink:href="#DejaVuSans-65" transform="translate(467.041016 0)"/>
      <use xlink:href="#DejaVuSans-20" transform="translate(528.564453 0)"/>
      <use xlink:href="#DejaVuSans-28" transform="translate(560.351562 0)"/>
      <use xlink:href="#DejaVuSans-61" transform="translate(599.365234 0)"/>
      <use xlink:href="#DejaVuSans-6c" transform="translate(660.644531 0)"/>
      <use xlink:href="#DejaVuSans-73" transform="translate(688.427734 0)"/>
      <use xlink:href="#DejaVuSans-53" transform="translate(740.527344 0)"/>
      <use xlink:href="#DejaVuSans-44" transform="translate(804.003906 0)"/>
      <use xlink:href="#DejaVuSans-20" transform="translate(881.005859 0)"/>
      <use xlink:href="#DejaVuSans-4b" transform="translate(912.792969 0)"/>
      <use xlink:href="#DejaVuSans-4f" transform="translate(972.869141 0)"/>
      <use xlink:href="#DejaVuSans-29" transform="translate(1051.580078 0)"/>
      <use xlink:href="#DejaVuSans-20" transform="translate(1090.59375 0)"/>
      <use xlink:href="#DejaVuSans-5b" transform="translate(1122.380859 0)"/>
      <use xlink:href="#DejaVuSans-50" transform="translate(1161.394531 0)"/>
      <use xlink:href="#DejaVuSans-72" transform="translate(1219.947266 0)"/>
      <use xlink:href="#DejaVuSans-65" transform="translate(1258.810547 0)"/>
      <use xlink:href="#DejaVuSans-63" transform="translate(1320.333984 0)"/>
      <use xlink:href="#DejaVuSans-75" transform="translate(1375.314453 0)"/>
      <use xlink:href="#DejaVuSans-72" transform="translate(1438.693359 0)"/>
      <use xlink:href="#DejaVuSans-73" transform="translate(1479.806641 0)"/>
      <use xlink:href="#DejaVuSans-6f" transform="translate(1531.90625 0)"/>
      <use xlink:href="#DejaVuSans-72" transform="translate(1593.087891 0)"/>
      <use xlink:href="#DejaVuSans-5d" transform="translate(1634.201172 0)"/>
     </g>
    </g>
    <g id="line2d_25">
     <path d="M 339.479375 548.189787 
L 348.479375 548.189787 
L 357.479375 548.189787 
" style="fill: none; stroke-dasharray: 2,3.3; stroke-dashoffset: 0; stroke: #1f77b4; stroke-opacity: 0.9; stroke-width: 2"/>
     <defs>
      <path id="m9e28dfdf65" d="M 0 -3 
L -3 3 
L 3 3 
z
" style="stroke: #1f77b4; stroke-opacity: 0.9; stroke-linejoin: miter"/>
     </defs>
     <g>
      <use xlink:href="#m9e28dfdf65" x="348.479375" y="548.189787" style="fill: #1f77b4; fill-opacity: 0.9; stroke: #1f77b4; stroke-opacity: 0.9; stroke-linejoin: miter"/>
     </g>
    </g>
    <g id="text_15">
     <!-- Glutamate (alsSD KO) [Acetoin] -->
     <g transform="translate(364.679375 551.339787) scale(0.09 -0.09)">
      <defs>
       <path id="DejaVuSans-69" d="M 603 3500 
L 1178 3500 
L 1178 0 
L 603 0 
L 603 3500 
z
M 603 4863 
L 1178 4863 
L 1178 4134 
L 603 4134 
L 603 4863 
z
" transform="scale(0.015625)"/>
       <path id="DejaVuSans-6e" d="M 3513 2113 
L 3513 0 
L 2938 0 
L 2938 2094 
Q 2938 2591 2744 2837 
Q 2550 3084 2163 3084 
Q 1697 3084 1428 2787 
Q 1159 2491 1159 1978 
L 1159 0 
L 581 0 
L 581 3500 
L 1159 3500 
L 1159 2956 
Q 1366 3272 1645 3428 
Q 1925 3584 2291 3584 
Q 2894 3584 3203 3211 
Q 3513 2838 3513 2113 
z
" transform="scale(0.015625)"/>
      </defs>
      <use xlink:href="#DejaVuSans-47"/>
      <use xlink:href="#DejaVuSans-6c" transform="translate(77.490234 0)"/>
      <use xlink:href="#DejaVuSans-75" transform="translate(105.273438 0)"/>
      <use xlink:href="#DejaVuSans-74" transform="translate(168.652344 0)"/>
      <use xlink:href="#DejaVuSans-61" transform="translate(207.861328 0)"/>
      <use xlink:href="#DejaVuSans-6d" transform="translate(269.140625 0)"/>
      <use xlink:href="#DejaVuSans-61" transform="translate(366.552734 0)"/>
      <use xlink:href="#DejaVuSans-74" transform="translate(427.832031 0)"/>
      <use xlink:href="#DejaVuSans-65" transform="translate(467.041016 0)"/>
      <use xlink:href="#DejaVuSans-20" transform="translate(528.564453 0)"/>
      <use xlink:href="#DejaVuSans-28" transform="translate(560.351562 0)"/>
      <use xlink:href="#DejaVuSans-61" transform="translate(599.365234 0)"/>
      <use xlink:href="#DejaVuSans-6c" transform="translate(660.644531 0)"/>
      <use xlink:href="#DejaVuSans-73" transform="translate(688.427734 0)"/>
      <use xlink:href="#DejaVuSans-53" transform="translate(740.527344 0)"/>
      <use xlink:href="#DejaVuSans-44" transform="translate(804.003906 0)"/>
      <use xlink:href="#DejaVuSans-20" transform="translate(881.005859 0)"/>
      <use xlink:href="#DejaVuSans-4b" transform="translate(912.792969 0)"/>
      <use xlink:href="#DejaVuSans-4f" transform="translate(972.869141 0)"/>
      <use xlink:href="#DejaVuSans-29" transform="translate(1051.580078 0)"/>
      <use xlink:href="#DejaVuSans-20" transform="translate(1090.59375 0)"/>
      <use xlink:href="#DejaVuSans-5b" transform="translate(1122.380859 0)"/>
      <use xlink:href="#DejaVuSans-41" transform="translate(1161.394531 0)"/>
      <use xlink:href="#DejaVuSans-63" transform="translate(1228.052734 0)"/>
      <use xlink:href="#DejaVuSans-65" transform="translate(1283.033203 0)"/>
      <use xlink:href="#DejaVuSans-74" transform="translate(1344.556641 0)"/>
      <use xlink:href="#DejaVuSans-6f" transform="translate(1383.765625 0)"/>
      <use xlink:href="#DejaVuSans-69" transform="translate(1444.947266 0)"/>
      <use xlink:href="#DejaVuSans-6e" transform="translate(1472.730469 0)"/>
      <use xlink:href="#DejaVuSans-5d" transform="translate(1536.109375 0)"/>
     </g>
    </g>
   </g>
  </g>
  <g id="axes_2">
   <g id="matplotlib.axis_3">
    <g id="ytick_6">
     <g id="line2d_26">
      <defs>
       <path id="m80dd12a997" d="M 0 0 
L 3.5 0 
" style="stroke: #000000; stroke-width: 0.8"/>
      </defs>
      <g>
       <use xlink:href="#m80dd12a997" x="794.192812" y="402.082856" style="stroke: #000000; stroke-width: 0.8"/>
      </g>
     </g>
     <g id="text_16">
      <!-- −0.04 -->
      <g style="fill: #7f7f7f" transform="translate(801.192812 405.882075) scale(0.1 -0.1)">
       <use xlink:href="#DejaVuSans-2212"/>
       <use xlink:href="#DejaVuSans-30" transform="translate(83.789062 0)"/>
       <use xlink:href="#DejaVuSans-2e" transform="translate(147.412109 0)"/>
       <use xlink:href="#DejaVuSans-30" transform="translate(179.199219 0)"/>
       <use xlink:href="#DejaVuSans-34" transform="translate(242.822266 0)"/>
      </g>
     </g>
    </g>
    <g id="ytick_7">
     <g id="line2d_27">
      <g>
       <use xlink:href="#m80dd12a997" x="794.192812" y="325.559656" style="stroke: #000000; stroke-width: 0.8"/>
      </g>
     </g>
     <g id="text_17">
      <!-- −0.02 -->
      <g style="fill: #7f7f7f" transform="translate(801.192812 329.358875) scale(0.1 -0.1)">
       <use xlink:href="#DejaVuSans-2212"/>
       <use xlink:href="#DejaVuSans-30" transform="translate(83.789062 0)"/>
       <use xlink:href="#DejaVuSans-2e" transform="translate(147.412109 0)"/>
       <use xlink:href="#DejaVuSans-30" transform="translate(179.199219 0)"/>
       <use xlink:href="#DejaVuSans-32" transform="translate(242.822266 0)"/>
      </g>
     </g>
    </g>
    <g id="ytick_8">
     <g id="line2d_28">
      <g>
       <use xlink:href="#m80dd12a997" x="794.192812" y="249.036456" style="stroke: #000000; stroke-width: 0.8"/>
      </g>
     </g>
     <g id="text_18">
      <!-- 0.00 -->
      <g style="fill: #7f7f7f" transform="translate(801.192812 252.835675) scale(0.1 -0.1)">
       <use xlink:href="#DejaVuSans-30"/>
       <use xlink:href="#DejaVuSans-2e" transform="translate(63.623047 0)"/>
       <use xlink:href="#DejaVuSans-30" transform="translate(95.410156 0)"/>
       <use xlink:href="#DejaVuSans-30" transform="translate(159.033203 0)"/>
      </g>
     </g>
    </g>
    <g id="ytick_9">
     <g id="line2d_29">
      <g>
       <use xlink:href="#m80dd12a997" x="794.192812" y="172.513256" style="stroke: #000000; stroke-width: 0.8"/>
      </g>
     </g>
     <g id="text_19">
      <!-- 0.02 -->
      <g style="fill: #7f7f7f" transform="translate(801.192812 176.312475) scale(0.1 -0.1)">
       <use xlink:href="#DejaVuSans-30"/>
       <use xlink:href="#DejaVuSans-2e" transform="translate(63.623047 0)"/>
       <use xlink:href="#DejaVuSans-30" transform="translate(95.410156 0)"/>
       <use xlink:href="#DejaVuSans-32" transform="translate(159.033203 0)"/>
      </g>
     </g>
    </g>
    <g id="ytick_10">
     <g id="line2d_30">
      <g>
       <use xlink:href="#m80dd12a997" x="794.192812" y="95.990056" style="stroke: #000000; stroke-width: 0.8"/>
      </g>
     </g>
     <g id="text_20">
      <!-- 0.04 -->
      <g style="fill: #7f7f7f" transform="translate(801.192812 99.789275) scale(0.1 -0.1)">
       <use xlink:href="#DejaVuSans-30"/>
       <use xlink:href="#DejaVuSans-2e" transform="translate(63.623047 0)"/>
       <use xlink:href="#DejaVuSans-30" transform="translate(95.410156 0)"/>
       <use xlink:href="#DejaVuSans-34" transform="translate(159.033203 0)"/>
      </g>
     </g>
    </g>
    <g id="text_21">
     <!-- Acetoin Flux (mmol/gDCW/h) -->
     <g style="fill: #7f7f7f" transform="translate(844.95625 346.218644) rotate(-90) scale(0.12 -0.12)">
      <defs>
       <path id="DejaVuSans-Bold-63" d="M 3366 3391 
L 3366 2478 
Q 3138 2634 2908 2709 
Q 2678 2784 2431 2784 
Q 1963 2784 1702 2511 
Q 1441 2238 1441 1747 
Q 1441 1256 1702 982 
Q 1963 709 2431 709 
Q 2694 709 2930 787 
Q 3166 866 3366 1019 
L 3366 103 
Q 3103 6 2833 -42 
Q 2563 -91 2291 -91 
Q 1344 -91 809 395 
Q 275 881 275 1747 
Q 275 2613 809 3098 
Q 1344 3584 2291 3584 
Q 2566 3584 2833 3536 
Q 3100 3488 3366 3391 
z
" transform="scale(0.015625)"/>
       <path id="DejaVuSans-Bold-69" d="M 538 3500 
L 1656 3500 
L 1656 0 
L 538 0 
L 538 3500 
z
M 538 4863 
L 1656 4863 
L 1656 3950 
L 538 3950 
L 538 4863 
z
" transform="scale(0.015625)"/>
       <path id="DejaVuSans-Bold-6e" d="M 4056 2131 
L 4056 0 
L 2931 0 
L 2931 347 
L 2931 1631 
Q 2931 2084 2911 2256 
Q 2891 2428 2841 2509 
Q 2775 2619 2662 2680 
Q 2550 2741 2406 2741 
Q 2056 2741 1856 2470 
Q 1656 2200 1656 1722 
L 1656 0 
L 538 0 
L 538 3500 
L 1656 3500 
L 1656 2988 
Q 1909 3294 2193 3439 
Q 2478 3584 2822 3584 
Q 3428 3584 3742 3212 
Q 4056 2841 4056 2131 
z
" transform="scale(0.015625)"/>
      </defs>
      <use xlink:href="#DejaVuSans-Bold-41"/>
      <use xlink:href="#DejaVuSans-Bold-63" transform="translate(77.392578 0)"/>
      <use xlink:href="#DejaVuSans-Bold-65" transform="translate(136.669922 0)"/>
      <use xlink:href="#DejaVuSans-Bold-74" transform="translate(204.492188 0)"/>
      <use xlink:href="#DejaVuSans-Bold-6f" transform="translate(252.294922 0)"/>
      <use xlink:href="#DejaVuSans-Bold-69" transform="translate(320.996094 0)"/>
      <use xlink:href="#DejaVuSans-Bold-6e" transform="translate(355.273438 0)"/>
      <use xlink:href="#DejaVuSans-Bold-20" transform="translate(426.464844 0)"/>
      <use xlink:href="#DejaVuSans-Bold-46" transform="translate(461.279297 0)"/>
      <use xlink:href="#DejaVuSans-Bold-6c" transform="translate(529.589844 0)"/>
      <use xlink:href="#DejaVuSans-Bold-75" transform="translate(563.867188 0)"/>
      <use xlink:href="#DejaVuSans-Bold-78" transform="translate(635.058594 0)"/>
      <use xlink:href="#DejaVuSans-Bold-20" transform="translate(699.560547 0)"/>
      <use xlink:href="#DejaVuSans-Bold-28" transform="translate(734.375 0)"/>
      <use xlink:href="#DejaVuSans-Bold-6d" transform="translate(780.078125 0)"/>
      <use xlink:href="#DejaVuSans-Bold-6d" transform="translate(884.277344 0)"/>
      <use xlink:href="#DejaVuSans-Bold-6f" transform="translate(988.476562 0)"/>
      <use xlink:href="#DejaVuSans-Bold-6c" transform="translate(1057.177734 0)"/>
      <use xlink:href="#DejaVuSans-Bold-2f" transform="translate(1091.455078 0)"/>
      <use xlink:href="#DejaVuSans-Bold-67" transform="translate(1127.978516 0)"/>
      <use xlink:href="#DejaVuSans-Bold-44" transform="translate(1199.560547 0)"/>
      <use xlink:href="#DejaVuSans-Bold-43" transform="translate(1282.568359 0)"/>
      <use xlink:href="#DejaVuSans-Bold-57" transform="translate(1355.957031 0)"/>
      <use xlink:href="#DejaVuSans-Bold-2f" transform="translate(1466.259766 0)"/>
      <use xlink:href="#DejaVuSans-Bold-68" transform="translate(1502.783203 0)"/>
      <use xlink:href="#DejaVuSans-Bold-29" transform="translate(1573.974609 0)"/>
     </g>
    </g>
   </g>
   <g id="line2d_31">
    <path d="M 427.372813 249.036456 
L 427.372813 249.036456 
L 427.372813 249.036456 
L 427.372813 249.036456 
L 427.372813 249.036456 
L 427.372813 249.036456 
" clip-path="url(#p57184723f7)" style="fill: none; stroke-dasharray: 2,3.3; stroke-dashoffset: 0; stroke: #1f77b4; stroke-opacity: 0.9; stroke-width: 2"/>
    <g clip-path="url(#p57184723f7)">
     <use xlink:href="#m9e28dfdf65" x="427.372813" y="249.036456" style="fill: #1f77b4; fill-opacity: 0.9; stroke: #1f77b4; stroke-opacity: 0.9; stroke-linejoin: miter"/>
     <use xlink:href="#m9e28dfdf65" x="427.372813" y="249.036456" style="fill: #1f77b4; fill-opacity: 0.9; stroke: #1f77b4; stroke-opacity: 0.9; stroke-linejoin: miter"/>
     <use xlink:href="#m9e28dfdf65" x="427.372813" y="249.036456" style="fill: #1f77b4; fill-opacity: 0.9; stroke: #1f77b4; stroke-opacity: 0.9; stroke-linejoin: miter"/>
     <use xlink:href="#m9e28dfdf65" x="427.372813" y="249.036456" style="fill: #1f77b4; fill-opacity: 0.9; stroke: #1f77b4; stroke-opacity: 0.9; stroke-linejoin: miter"/>
     <use xlink:href="#m9e28dfdf65" x="427.372813" y="249.036456" style="fill: #1f77b4; fill-opacity: 0.9; stroke: #1f77b4; stroke-opacity: 0.9; stroke-linejoin: miter"/>
     <use xlink:href="#m9e28dfdf65" x="427.372813" y="249.036456" style="fill: #1f77b4; fill-opacity: 0.9; stroke: #1f77b4; stroke-opacity: 0.9; stroke-linejoin: miter"/>
    </g>
   </g>
   <g id="patch_9">
    <path d="M 60.552813 459.475256 
L 60.552813 38.597656 
" style="fill: none; stroke: #000000; stroke-width: 0.8; stroke-linejoin: miter; stroke-linecap: square"/>
   </g>
   <g id="patch_10">
    <path d="M 794.192812 459.475256 
L 794.192812 38.597656 
" style="fill: none; stroke: #000000; stroke-width: 0.8; stroke-linejoin: miter; stroke-linecap: square"/>
   </g>
   <g id="patch_11">
    <path d="M 60.552812 459.475256 
L 794.192813 459.475256 
" style="fill: none; stroke: #000000; stroke-width: 0.8; stroke-linejoin: miter; stroke-linecap: square"/>
   </g>
   <g id="patch_12">
    <path d="M 60.552812 38.597656 
L 794.192813 38.597656 
" style="fill: none; stroke: #000000; stroke-width: 0.8; stroke-linejoin: miter; stroke-linecap: square"/>
   </g>
   <g id="text_22">
    <!-- Metabolic Divergence: Glutamate (alsSD KO) -->
    <g transform="translate(238.134922 18.597656) scale(0.15 -0.15)">
     <defs>
      <path id="DejaVuSans-Bold-4d" d="M 588 4666 
L 2119 4666 
L 3181 2169 
L 4250 4666 
L 5778 4666 
L 5778 0 
L 4641 0 
L 4641 3413 
L 3566 897 
L 2803 897 
L 1728 3413 
L 1728 0 
L 588 0 
L 588 4666 
z
" transform="scale(0.015625)"/>
      <path id="DejaVuSans-Bold-62" d="M 2400 722 
Q 2759 722 2948 984 
Q 3138 1247 3138 1747 
Q 3138 2247 2948 2509 
Q 2759 2772 2400 2772 
Q 2041 2772 1848 2508 
Q 1656 2244 1656 1747 
Q 1656 1250 1848 986 
Q 2041 722 2400 722 
z
M 1656 2988 
Q 1888 3294 2169 3439 
Q 2450 3584 2816 3584 
Q 3463 3584 3878 3070 
Q 4294 2556 4294 1747 
Q 4294 938 3878 423 
Q 3463 -91 2816 -91 
Q 2450 -91 2169 54 
Q 1888 200 1656 506 
L 1656 0 
L 538 0 
L 538 4863 
L 1656 4863 
L 1656 2988 
z
" transform="scale(0.015625)"/>
      <path id="DejaVuSans-Bold-76" d="M 97 3500 
L 1216 3500 
L 2088 1081 
L 2956 3500 
L 4078 3500 
L 2700 0 
L 1472 0 
L 97 3500 
z
" transform="scale(0.015625)"/>
      <path id="DejaVuSans-Bold-3a" d="M 716 3500 
L 1844 3500 
L 1844 2291 
L 716 2291 
L 716 3500 
z
M 716 1209 
L 1844 1209 
L 1844 0 
L 716 0 
L 716 1209 
z
" transform="scale(0.015625)"/>
      <path id="DejaVuSans-Bold-73" d="M 3272 3391 
L 3272 2541 
Q 2913 2691 2578 2766 
Q 2244 2841 1947 2841 
Q 1628 2841 1473 2761 
Q 1319 2681 1319 2516 
Q 1319 2381 1436 2309 
Q 1553 2238 1856 2203 
L 2053 2175 
Q 2913 2066 3209 1816 
Q 3506 1566 3506 1031 
Q 3506 472 3093 190 
Q 2681 -91 1863 -91 
Q 1516 -91 1145 -36 
Q 775 19 384 128 
L 384 978 
Q 719 816 1070 734 
Q 1422 653 1784 653 
Q 2113 653 2278 743 
Q 2444 834 2444 1013 
Q 2444 1163 2330 1236 
Q 2216 1309 1875 1350 
L 1678 1375 
Q 931 1469 631 1722 
Q 331 1975 331 2491 
Q 331 3047 712 3315 
Q 1094 3584 1881 3584 
Q 2191 3584 2531 3537 
Q 2872 3491 3272 3391 
z
" transform="scale(0.015625)"/>
      <path id="DejaVuSans-Bold-53" d="M 3834 4519 
L 3834 3531 
Q 3450 3703 3084 3790 
Q 2719 3878 2394 3878 
Q 1963 3878 1756 3759 
Q 1550 3641 1550 3391 
Q 1550 3203 1689 3098 
Q 1828 2994 2194 2919 
L 2706 2816 
Q 3484 2659 3812 2340 
Q 4141 2022 4141 1434 
Q 4141 663 3683 286 
Q 3225 -91 2284 -91 
Q 1841 -91 1394 -6 
Q 947 78 500 244 
L 500 1259 
Q 947 1022 1364 901 
Q 1781 781 2169 781 
Q 2563 781 2772 912 
Q 2981 1044 2981 1288 
Q 2981 1506 2839 1625 
Q 2697 1744 2272 1838 
L 1806 1941 
Q 1106 2091 782 2419 
Q 459 2747 459 3303 
Q 459 4000 909 4375 
Q 1359 4750 2203 4750 
Q 2588 4750 2994 4692 
Q 3400 4634 3834 4519 
z
" transform="scale(0.015625)"/>
      <path id="DejaVuSans-Bold-4b" d="M 588 4666 
L 1791 4666 
L 1791 2963 
L 3525 4666 
L 4922 4666 
L 2675 2456 
L 5153 0 
L 3647 0 
L 1791 1838 
L 1791 0 
L 588 0 
L 588 4666 
z
" transform="scale(0.015625)"/>
      <path id="DejaVuSans-Bold-4f" d="M 2719 3878 
Q 2169 3878 1866 3472 
Q 1563 3066 1563 2328 
Q 1563 1594 1866 1187 
Q 2169 781 2719 781 
Q 3272 781 3575 1187 
Q 3878 1594 3878 2328 
Q 3878 3066 3575 3472 
Q 3272 3878 2719 3878 
z
M 2719 4750 
Q 3844 4750 4481 4106 
Q 5119 3463 5119 2328 
Q 5119 1197 4481 553 
Q 3844 -91 2719 -91 
Q 1597 -91 958 553 
Q 319 1197 319 2328 
Q 319 3463 958 4106 
Q 1597 4750 2719 4750 
z
" transform="scale(0.015625)"/>
     </defs>
     <use xlink:href="#DejaVuSans-Bold-4d"/>
     <use xlink:href="#DejaVuSans-Bold-65" transform="translate(99.511719 0)"/>
     <use xlink:href="#DejaVuSans-Bold-74" transform="translate(167.333984 0)"/>
     <use xlink:href="#DejaVuSans-Bold-61" transform="translate(215.136719 0)"/>
     <use xlink:href="#DejaVuSans-Bold-62" transform="translate(282.617188 0)"/>
     <use xlink:href="#DejaVuSans-Bold-6f" transform="translate(354.199219 0)"/>
     <use xlink:href="#DejaVuSans-Bold-6c" transform="translate(422.900391 0)"/>
     <use xlink:href="#DejaVuSans-Bold-69" transform="translate(457.177734 0)"/>
     <use xlink:href="#DejaVuSans-Bold-63" transform="translate(491.455078 0)"/>
     <use xlink:href="#DejaVuSans-Bold-20" transform="translate(550.732422 0)"/>
     <use xlink:href="#DejaVuSans-Bold-44" transform="translate(585.546875 0)"/>
     <use xlink:href="#DejaVuSans-Bold-69" transform="translate(668.554688 0)"/>
     <use xlink:href="#DejaVuSans-Bold-76" transform="translate(702.832031 0)"/>
     <use xlink:href="#DejaVuSans-Bold-65" transform="translate(768.017578 0)"/>
     <use xlink:href="#DejaVuSans-Bold-72" transform="translate(835.839844 0)"/>
     <use xlink:href="#DejaVuSans-Bold-67" transform="translate(885.15625 0)"/>
     <use xlink:href="#DejaVuSans-Bold-65" transform="translate(956.738281 0)"/>
     <use xlink:href="#DejaVuSans-Bold-6e" transform="translate(1024.560547 0)"/>
     <use xlink:href="#DejaVuSans-Bold-63" transform="translate(1095.751953 0)"/>
     <use xlink:href="#DejaVuSans-Bold-65" transform="translate(1155.029297 0)"/>
     <use xlink:href="#DejaVuSans-Bold-3a" transform="translate(1222.851562 0)"/>
     <use xlink:href="#DejaVuSans-Bold-20" transform="translate(1262.841797 0)"/>
     <use xlink:href="#DejaVuSans-Bold-47" transform="translate(1297.65625 0)"/>
     <use xlink:href="#DejaVuSans-Bold-6c" transform="translate(1379.736328 0)"/>
     <use xlink:href="#DejaVuSans-Bold-75" transform="translate(1414.013672 0)"/>
     <use xlink:href="#DejaVuSans-Bold-74" transform="translate(1485.205078 0)"/>
     <use xlink:href="#DejaVuSans-Bold-61" transform="translate(1533.007812 0)"/>
     <use xlink:href="#DejaVuSans-Bold-6d" transform="translate(1600.488281 0)"/>
     <use xlink:href="#DejaVuSans-Bold-61" transform="translate(1704.6875 0)"/>
     <use xlink:href="#DejaVuSans-Bold-74" transform="translate(1772.167969 0)"/>
     <use xlink:href="#DejaVuSans-Bold-65" transform="translate(1819.970703 0)"/>
     <use xlink:href="#DejaVuSans-Bold-20" transform="translate(1887.792969 0)"/>
     <use xlink:href="#DejaVuSans-Bold-28" transform="translate(1922.607422 0)"/>
     <use xlink:href="#DejaVuSans-Bold-61" transform="translate(1968.310547 0)"/>
     <use xlink:href="#DejaVuSans-Bold-6c" transform="translate(2035.791016 0)"/>
     <use xlink:href="#DejaVuSans-Bold-73" transform="translate(2070.068359 0)"/>
     <use xlink:href="#DejaVuSans-Bold-53" transform="translate(2129.589844 0)"/>
     <use xlink:href="#DejaVuSans-Bold-44" transform="translate(2201.611328 0)"/>
     <use xlink:href="#DejaVuSans-Bold-20" transform="translate(2284.619141 0)"/>
     <use xlink:href="#DejaVuSans-Bold-4b" transform="translate(2319.433594 0)"/>
     <use xlink:href="#DejaVuSans-Bold-4f" transform="translate(2392.423828 0)"/>
     <use xlink:href="#DejaVuSans-Bold-29" transform="translate(2477.433594 0)"/>
    </g>
   </g>
  </g>
 </g>
 <defs>
  <clipPath id="p57184723f7">
   <rect x="60.552813" y="38.597656" width="733.64" height="420.8776"/>
  </clipPath>
 </defs>
</svg>
